HIERARCHY
ROOT Hips
{
 OFFSET 0.000000 0.000000 0.000000
 CHANNELS 6 Xposition Yposition Zposition Yrotation Xrotation Zrotation
 JOINT Chest
 {
  OFFSET 0.000000 9.585900 0.002600
  CHANNELS 3 Yrotation Xrotation Zrotation
  JOINT Chest2
  {
   OFFSET 0.000000 9.601200 -0.005300
   CHANNELS 3 Yrotation Xrotation Zrotation
   JOINT Chest3
   {
    OFFSET 0.000000 9.561800 0.000000
    CHANNELS 3 Yrotation Xrotation Zrotation
    JOINT Chest4
    {
     OFFSET 0.000000 9.552100 0.000000
     CHANNELS 3 Yrotation Xrotation Zrotation
     JOINT Neck
     {
      OFFSET 0.000000 14.453000 0.000000
      CHANNELS 3 Yrotation Xrotation Zrotation
      JOINT Head
      {
       OFFSET 0.000000 8.936500 -0.011300
       CHANNELS 3 Yrotation Xrotation Zrotation
       End Site
       {
        OFFSET 0.000000 17.073600 -0.006000
       }
      }
     }
     JOINT RightCollar
     {
      OFFSET -2.921100 9.558500 0.000000
      CHANNELS 3 Yrotation Xrotation Zrotation
      JOINT RightShoulder
      {
       OFFSET -13.519700 0.000000 0.000000
       CHANNELS 3 Yrotation Xrotation Zrotation
       JOINT RightElbow
       {
        OFFSET 0.000000 -29.696600 0.000000
        CHANNELS 3 Yrotation Xrotation Zrotation
        JOINT RightWrist
        {
         OFFSET 0.000000 -24.004700 0.000000
         CHANNELS 3 Yrotation Xrotation Zrotation
         End Site
         {
          OFFSET 0.000000 -17.728500 0.000000
         }
        }
       }
      }
     }
     JOINT LeftCollar
     {
      OFFSET 2.921100 9.558500 0.000000
      CHANNELS 3 Yrotation Xrotation Zrotation
      JOINT LeftShoulder
      {
       OFFSET 13.519700 0.000000 0.000000
       CHANNELS 3 Yrotation Xrotation Zrotation
       JOINT LeftElbow
       {
        OFFSET 0.000000 -29.696600 0.000000
        CHANNELS 3 Yrotation Xrotation Zrotation
        JOINT LeftWrist
        {
         OFFSET 0.000000 -24.004700 0.000000
         CHANNELS 3 Yrotation Xrotation Zrotation
         End Site
         {
          OFFSET 0.000000 -17.728500 0.000000
         }
        }
       }
      }
     }
    }
   }
  }
 }
 JOINT RightHip
 {
  OFFSET -7.771700 -0.012900 -0.001300
  CHANNELS 3 Yrotation Xrotation Zrotation
  JOINT RightKnee
  {
   OFFSET 0.000000 -40.869800 0.001200
   CHANNELS 3 Yrotation Xrotation Zrotation
   JOINT RightAnkle
   {
    OFFSET 0.000000 -39.717900 0.002100
    CHANNELS 3 Yrotation Xrotation Zrotation
    JOINT RightToe
    {
     OFFSET 0.000000 -4.965400 11.033500
     CHANNELS 3 Yrotation Xrotation Zrotation
     End Site
     {
      OFFSET 0.000000 -1.423100 5.872300
     }
    }
   }
  }
 }
 JOINT LeftHip
 {
  OFFSET 7.771700 -0.012900 -0.001300
  CHANNELS 3 Yrotation Xrotation Zrotation
  JOINT LeftKnee
  {
   OFFSET 0.000000 -40.869800 0.001200
   CHANNELS 3 Yrotation Xrotation Zrotation
   JOINT LeftAnkle
   {
    OFFSET 0.000000 -39.717900 0.002100
    CHANNELS 3 Yrotation Xrotation Zrotation
    JOINT LeftToe
    {
     OFFSET 0.000000 -4.965400 11.033500
     CHANNELS 3 Yrotation Xrotation Zrotation
     End Site
     {
      OFFSET 0.000000 -1.423100 5.872300
     }
    }
   }
  }
 }
}
MOTION
Frames: 14
Frame Time: 0.008333
0.000000 85.388000 0.000000 0.000000 -5.767877 0.000000 0.000000 11.653817 0.000000 0.000000 -5.885947 0.000000 0.000000 -0.000000 0.000000 0.000000 -0.000000 0.000000 0.000000 12.528835 0.000000 0.000000 0.711642 0.000000 0.000000 -0.000000 0.000000 0.000000 0.000000 -90.000000 0.000000 -2.309062 0.000000 0.000000 2.309062 0.000000 0.000000 -0.000000 0.000000 0.000000 -0.000000 90.000000 0.000000 -2.309062 0.000000 0.000000 2.309062 0.000000 0.000000 8.520406 0.000000 0.000000 1.905762 0.000000 -0.000000 -4.658285 0.000000 0.000000 -0.000000 0.000000 0.000000 8.520406 0.000000 0.000000 1.905762 0.000000 -0.000000 -4.658285 0.000000 0.000000 -0.000000 0.000000
11.797101 52.277269 41.372382 169.914240 -38.478837 -2.076994 4.338797 23.591374 2.239805 0.571441 3.617320 0.423980 0.911585 5.775259 0.694031 3.567971 19.749368 2.866902 1.264777 13.552470 -0.680990 2.658201 -10.600313 -1.786423 -4.990559 -1.934881 -2.430905 -5.308670 -8.928705 0.580952 175.448741 -62.252107 -162.049913 4.112814 -1.610211 -1.209550 -5.945839 -0.312396 -0.116253 4.464823 -12.094813 6.755902 164.335480 -58.310556 169.474795 -14.069793 -12.519149 24.229089 -4.571754 -43.154455 5.352724 99.792900 86.582338 102.923800 -4.593476 -7.828465 -2.986765 0.515148 -0.911588 0.202805 1.884720 -39.370499 6.708986 70.939648 82.274948 61.290801 -6.419258 -11.941778 9.148464 0.616537 1.460538 0.269979
11.790708 52.273903 41.369384 169.909268 -38.422075 -2.065255 4.382869 23.604230 2.255404 0.570046 3.606917 0.425259 0.930985 5.796354 0.702376 3.588280 19.736757 2.883241 1.250629 13.546672 -0.686265 2.633658 -10.611194 -1.790899 -4.940186 -1.972491 -2.429090 -5.542332 -8.939460 0.339384 175.677738 -60.874104 -162.313425 4.098966 -1.378269 -1.655933 -5.963001 -0.359430 -0.098516 4.569022 -12.368764 6.826218 164.639648 -57.185408 169.297797 -14.212762 -12.653928 24.697867 -4.575387 -43.211317 5.334496 99.840486 86.570991 102.981659 -4.599849 -7.846084 -3.000632 0.529339 -0.903216 0.207448 1.917194 -39.429098 6.640289 71.023677 82.237866 61.403945 -6.366777 -11.967732 9.150637 0.570834 1.467895 0.250543
11.783245 52.273764 41.358297 169.937878 -38.396625 -2.064235 4.397321 23.634432 2.263458 0.550485 3.582001 0.419964 0.935566 5.799129 0.704968 3.653394 19.770847 2.913281 1.235280 13.534889 -0.693451 2.607867 -10.633242 -1.798776 -4.915851 -2.008007 -2.429798 -5.737854 -8.936085 0.086721 175.789726 -59.407213 -162.508069 4.055280 -1.213895 -2.177516 -5.979989 -0.394249 -0.079537 4.677779 -12.662235 6.916802 165.220951 -55.929717 168.924134 -14.413381 -12.736870 25.253376 -4.589672 -43.232617 5.290647 100.109255 86.554007 103.274047 -4.618697 -7.874518 -3.032665 0.561642 -0.903137 0.221989 1.912668 -39.454107 6.581064 71.133686 82.211319 61.525784 -6.340047 -11.975031 9.147128 0.544116 1.460514 0.242575
11.777982 52.270914 41.346674 169.939223 -38.349389 -2.060869 4.416303 23.613681 2.271614 0.591781 3.625961 0.433950 0.946460 5.804841 0.711246 3.668454 19.756888 2.928158 1.219536 13.517746 -0.701188 2.581649 -10.665315 -1.807716 -4.893038 -2.034254 -2.433600 -5.923155 -8.931075 -0.155221 175.746079 -57.866465 -162.594320 3.950352 -1.151513 -2.748625 -5.995678 -0.420174 -0.060525 4.800957 -12.961769 7.033927 166.113021 -54.527606 168.340412 -14.694745 -12.843159 25.914417 -4.595397 -43.280999 5.275164 100.390585 86.536733 103.567562 -4.623062 -7.893663 -3.043501 0.565489 -0.905488 0.226172 1.912620 -39.503966 6.544846 71.256805 82.209893 61.657526 -6.294586 -11.998364 9.145552 0.511102 1.461924 0.232215
11.774231 52.265290 41.333779 169.931444 -38.282575 -2.058710 4.445986 23.572272 2.286755 0.607864 3.641305 0.439433 0.982082 5.837549 0.722824 3.634334 19.712411 2.925320 1.243869 13.526723 -0.707975 2.559417 -10.707515 -1.816668 -4.881459 -2.044937 -2.436241 -6.070867 -8.914680 -0.383530 175.582352 -56.265430 -162.578697 3.782063 -1.206207 -3.370354 -6.002983 -0.432171 -0.050797 4.975808 -13.235012 7.183491 167.229898 -52.980908 167.633252 -15.053882 -13.064183 26.650533 -4.596024 -43.352580 5.271769 100.701144 86.520997 103.888042 -4.619219 -7.906427 -3.041932 0.561428 -0.911527 0.229286 1.914253 -39.573810 6.535920 71.325163 82.238709 61.731784 -6.294717 -12.023671 9.150711 0.521679 1.469928 0.229446
11.768324 52.259974 41.314418 169.949929 -38.228266 -2.049641 4.513777 23.613833 2.318884 0.588121 3.615978 0.434925 0.974035 5.825030 0.721863 3.618343 19.681821 2.928792 1.263579 13.531443 -0.717863 2.542205 -10.757495 -1.822515 -4.790762 -2.015038 -2.452793 -6.346520 -8.945850 -0.586153 175.382147 -54.619019 -162.509735 3.590844 -1.389856 -4.045906 -6.009363 -0.445111 -0.040293 5.156738 -13.491420 7.343908 168.389933 -51.309657 166.951721 -15.475550 -13.464556 27.414532 -4.584545 -43.413878 5.223145 101.268420 86.500955 104.483257 -4.632962 -7.934786 -3.056158 0.578815 -0.918685 0.235901 1.899835 -39.631465 6.475649 71.486133 82.246363 61.897125 -6.221829 -12.050348 9.145938 0.482016 1.466041 0.215012
11.770207 52.262945 41.280597 169.917613 -38.264257 -2.033445 4.615247 23.717815 2.368822 0.591600 3.615899 0.435541 0.965709 5.809398 0.719394 3.634885 19.686264 2.944714 1.250536 13.496730 -0.730400 2.525056 -10.809577 -1.819171 -4.739558 -2.016143 -2.468949 -6.645495 -8.993754 -0.779465 175.159004 -52.948698 -162.419479 3.411301 -1.709853 -4.755357 -6.017050 -0.480736 -0.020320 5.303300 -13.741976 7.498875 169.398658 -49.559785 166.428297 -15.940929 -14.069121 28.164475 -4.536982 -43.384585 5.189421 102.157196 86.469589 105.412949 -4.618182 -7.977023 -3.070817 0.568748 -0.933423 0.230648 1.876810 -39.604352 6.443283 71.725779 82.302225 62.151283 -6.028598 -12.052961 9.126338 0.384486 1.402260 0.176319
11.773511 52.255332 41.255787 169.893053 -38.206436 -2.031159 4.701412 23.712515 2.414196 0.562300 3.587253 0.430213 0.967738 5.808545 0.719156 3.738805 19.748142 2.952396 1.192665 13.427472 -0.712917 2.503739 -10.858391 -1.803734 -4.778440 -2.059579 -2.448772 -6.906070 -9.042555 -0.970930 174.853985 -51.266138 -162.292609 3.241407 -2.169188 -5.483685 -6.078025 -0.552300 0.034988 5.460891 -13.981788 7.640675 170.099446 -47.804753 166.140796 -16.429729 -14.864733 28.855933 -4.510737 -43.452043 5.190280 102.713551 86.454502 105.995868 -4.606754 -7.988280 -3.068670 0.556172 -0.951033 0.224562 1.877475 -39.666974 6.447870 71.871061 82.348635 62.316002 -6.016086 -12.086329 9.109865 0.419782 1.403316 0.179711
11.774082 52.248525 41.224842 169.904747 -38.164115 -2.018457 4.750168 23.726971 2.427308 0.580261 3.599140 0.431877 0.972708 5.805319 0.717724 3.756292 19.741843 2.950086 1.135755 13.374281 -0.688529 2.510271 -10.884242 -1.791757 -4.793051 -2.076332 -2.434463 -7.146503 -9.105628 -1.155213 174.445219 -49.579105 -162.117579 3.070465 -2.765856 -6.226166 -6.113458 -0.604272 0.085236 5.656790 -14.236944 7.758028 170.426034 -46.130080 166.097475 -16.919545 -15.816080 29.464344 -4.479215 -43.507127 5.140890 103.541933 86.421805 106.858660 -4.622976 -8.018550 -3.077238 0.570308 -0.969619 0.232638 1.857647 -39.711011 6.393688 72.143179 82.357686 62.603581 -5.965554 -12.125861 9.081841 0.398407 1.404557 0.174602
11.765876 52.238837 41.192114 169.980970 -38.099041 -1.980688 4.718925 23.727786 2.370180 0.599220 3.611937 0.433370 0.977930 5.803226 0.716132 3.753463 19.725706 2.947229 1.093770 13.328676 -0.671061 2.515849 -10.894093 -1.768971 -4.792359 -2.089857 -2.430635 -7.370801 -9.184054 -1.331548 173.967530 -47.908008 -161.916066 2.911578 -3.492969 -6.989091 -6.062566 -0.675822 0.122037 5.813914 -14.507414 7.855842 170.402313 -44.594667 166.257449 -17.393246 -16.880889 29.990823 -4.439912 -43.594833 5.001762 104.666438 86.347151 108.021388 -4.694208 -8.081486 -3.100761 0.604538 -0.983156 0.248789 1.838224 -39.785893 6.219515 72.602103 82.317098 63.085396 -5.888415 -12.149814 9.060944 0.326195 1.395759 0.148733
11.771982 52.225309 41.165294 169.968102 -37.996790 -1.966684 4.787111 23.684771 2.396505 0.571193 3.580801 0.424651 0.998045 5.818407 0.718270 3.743088 19.709346 2.944110 1.164929 13.380512 -0.671833 2.440975 -10.951133 -1.715129 -4.755786 -2.078221 -2.445528 -7.576076 -9.275684 -1.500038 173.469217 -46.275528 -161.717464 2.784629 -4.335046 -7.789745 -5.993515 -0.736433 0.136241 6.005767 -14.800457 7.937391 170.085727 -43.217281 166.572319 -17.851322 -18.016574 30.444285 -4.410740 -43.713269 4.987018 105.368968 86.326198 108.749091 -4.682563 -8.106483 -3.100540 0.597670 -0.991822 0.247311 1.850036 -39.893694 6.186288 72.944529 82.314746 63.456651 -5.909209 -12.204296 9.040631 0.340973 1.419375 0.149246
11.769475 52.215973 41.129504 170.047879 -37.933798 -1.938086 4.750476 23.690655 2.349536 0.591175 3.597324 0.428226 0.937130 5.754694 0.703030 3.771254 19.724274 2.945913 1.209437 13.426453 -0.658644 2.393819 -10.975318 -1.670813 -4.723035 -2.069731 -2.460404 -7.761449 -9.377818 -1.657918 172.999675 -44.705050 -161.551807 2.683906 -5.269699 -8.609909 -5.987709 -0.785050 0.150214 6.252048 -15.138098 7.993543 169.546622 -42.000895 166.994618 -18.305478 -19.176577 30.835707 -4.384857 -43.793079 4.865902 106.468335 86.260354 109.884669 -4.744241 -8.176883 -3.125016 0.632775 -0.999926 0.265173 1.852290 -39.955269 6.061737 73.195131 82.303678 63.724199 -5.932423 -12.219378 9.027614 0.363832 1.417765 0.155722
11.778081 52.210165 41.091176 170.055852 -37.900191 -1.917319 4.793330 23.718544 2.361837 0.610147 3.615721 0.433179 0.928872 5.742913 0.698026 3.860511 19.776079 2.963709 1.137235 13.376349 -0.627461 2.362920 -10.966659 -1.627907 -4.790612 -2.158909 -2.453433 -7.933036 -9.491788 -1.800593 172.612115 -43.225332 -161.448649 2.582200 -6.270362 -9.400586 -6.004486 -0.960681 0.177424 6.377241 -15.470168 8.035792 168.880011 -40.942151 167.463992 -18.749256 -20.303063 31.181853 -4.360698 -43.836060 4.827781 107.370046 86.215428 110.806385 -4.758145 -8.227852 -3.133904 0.638656 -1.009822 0.269726 1.871610 -39.992570 5.993201 73.712105 82.271028 64.282631 -5.958353 -12.257919 9.003918 0.372687 1.411631 0.148968
